<svg preserveAspectRatio="none" overflow="visible" style="display: block;" width="14.626" height="18" viewBox="0 0 14.626 18" fill="none" xmlns="http://www.w3.org/2000/svg">
<path id="Union" d="M12.2285 4.6582C12.8498 4.6582 13.3533 5.16201 13.3535 5.7832V16.875C13.3534 17.4963 12.8498 18 12.2285 18H2.39648C1.77545 17.9997 1.27159 17.4961 1.27148 16.875V5.7832C1.27169 5.1622 1.7755 4.6585 2.39648 4.6582H12.2285ZM4.37891 6.20996C4.06834 6.20996 3.81561 6.46194 3.81543 6.77246V15.2656C3.81543 15.5763 4.06823 15.8281 4.37891 15.8281H5.16016C5.47084 15.8281 5.72266 15.5763 5.72266 15.2656V6.77246C5.72247 6.46194 5.47072 6.20996 5.16016 6.20996H4.37891ZM9.625 6.20996C9.31443 6.20996 9.06171 6.46194 9.06152 6.77246V15.2656C9.06152 15.5763 9.31432 15.8281 9.625 15.8281H10.4072C10.7179 15.8281 10.9697 15.5763 10.9697 15.2656V6.77246C10.9695 6.46194 10.7178 6.20996 10.4072 6.20996H9.625ZM9.29395 0C9.60461 0 9.85643 0.251836 9.85645 0.5625V1.08984H14.0635C14.3741 1.08987 14.6259 1.34173 14.626 1.65234V2.2334C14.626 2.54406 14.3741 2.79685 14.0635 2.79688H0.5625C0.251842 2.79685 0 2.54406 0 2.2334V1.65234C5.71819e-05 1.34173 0.251878 1.08987 0.5625 1.08984H4.76953V0.5625C4.76955 0.251836 5.02136 0 5.33203 0H9.29395Z" fill="#FB2826"/>
</svg>
